<?xml version="1.0" encoding="utf-8"?>
<!-- Generator: Adobe Illustrator 23.0.3, SVG Export Plug-In . SVG Version: 6.00 Build 0)  -->
<svg version="1.1" id="Layer_1" xmlns="http://www.w3.org/2000/svg" xmlns:xlink="http://www.w3.org/1999/xlink" x="0px" y="0px"
	 viewBox="0 0 364 119" style="enable-background:new 0 0 364 119;" xml:space="preserve">
<style type="text/css">
	.st0{fill:url(#SVGID_1_);}
	.st1{fill:url(#SVGID_2_);}
	.st2{fill:url(#SVGID_3_);}
	.st3{fill:url(#SVGID_4_);}
	.st4{fill:url(#SVGID_5_);}
	.st5{fill:url(#SVGID_6_);}
	.st6{fill:url(#SVGID_7_);}
	.st7{fill:url(#SVGID_8_);}
	.st8{fill:url(#SVGID_9_);}
	.st9{fill:url(#SVGID_10_);}
	.st10{fill:url(#SVGID_11_);}
	.st11{fill:url(#SVGID_12_);}
</style>
<g>
	
		<image style="overflow:visible;opacity:0.5;" width="356" height="121" xlink:href="C4CE173A3EA7AFD6.png"  transform="matrix(1 0 0 1 4.9864 0)">
	</image>
	<g>
		<g>
			<linearGradient id="SVGID_1_" gradientUnits="userSpaceOnUse" x1="12.7408" y1="30.5469" x2="44.5679" y2="30.5469">
				<stop  offset="0" style="stop-color:#FFFFFF"/>
				<stop  offset="0" style="stop-color:#0086AA"/>
				<stop  offset="1" style="stop-color:#12FFEB"/>
			</linearGradient>
			<path class="st0" d="M12.7,38.6H20v6.6c0.1,0,0.3,0.1,0.4,0.1c1,0.4,2.1,0.8,3.3,1.1c1.2,0.3,2.5,0.4,3.9,0.4
				c2.5,0,4.4-0.5,5.8-1.5c1.4-1,2.1-2.3,2.1-4c0-1.5-0.6-2.7-1.7-3.6c-1.1-0.9-2.5-1.7-4.2-2.5c-1.7-0.7-3.5-1.4-5.4-2.1
				c-2-0.7-3.8-1.6-5.4-2.7c-1.7-1.1-3-2.4-4.2-4.1c-1.1-1.6-1.7-3.8-1.7-6.4c0-2,0.4-3.8,1.2-5.5c0.8-1.7,1.9-3.1,3.2-4.3
				c1.4-1.2,3.1-2.1,5-2.8c1.9-0.7,4.1-1,6.5-1c2.7,0,5.3,0.2,8,0.7c2.6,0.5,4.7,1.1,6.2,2v13.5h-7.3v-7.4c-0.1,0-0.3,0-0.4-0.1
				c-1-0.3-2-0.5-3.1-0.6c-1.1-0.2-2.2-0.2-3.3-0.2c-2.1,0-3.8,0.4-5,1.3c-1.2,0.8-1.8,2-1.8,3.4c0,1.5,0.6,2.7,1.7,3.6
				c1.1,0.9,2.5,1.8,4.2,2.5c1.7,0.8,3.5,1.5,5.4,2.3c2,0.8,3.8,1.7,5.4,2.8c1.7,1.1,3.1,2.4,4.2,4.1c1.1,1.6,1.7,3.7,1.7,6.2
				c0,2.4-0.4,4.5-1.3,6.3c-0.9,1.8-2.1,3.3-3.7,4.5c-1.6,1.2-3.5,2.1-5.6,2.7c-2.2,0.6-4.5,0.9-7,0.9c-1.7,0-3.2-0.1-4.7-0.4
				c-1.4-0.3-2.8-0.6-4-1C17,52.9,15.9,52.5,15,52c-0.9-0.4-1.7-0.8-2.3-1.1V38.6z"/>
			<linearGradient id="SVGID_2_" gradientUnits="userSpaceOnUse" x1="62.1387" y1="30.9448" x2="95.292" y2="30.9448">
				<stop  offset="0" style="stop-color:#FFFFFF"/>
				<stop  offset="0" style="stop-color:#0086AA"/>
				<stop  offset="1" style="stop-color:#12FFEB"/>
			</linearGradient>
			<path class="st1" d="M86.7,7.3h8.6V37c0,3-0.4,5.6-1.2,7.8c-0.8,2.2-1.9,4-3.3,5.4c-1.4,1.4-3.1,2.5-5.1,3.2s-4.2,1.1-6.6,1.1
				c-5.7,0-10-1.4-12.8-4.2c-2.8-2.8-4.1-6.9-4.1-12.2V7.3h9.1v29c0,3.5,0.6,6.1,1.9,7.7c1.3,1.6,3.3,2.4,6,2.4
				c2.7,0,4.6-0.9,5.7-2.6c1.2-1.7,1.8-4.2,1.8-7.5V7.3z"/>
			<linearGradient id="SVGID_3_" gradientUnits="userSpaceOnUse" x1="113.5259" y1="30.5469" x2="145.3531" y2="30.5469">
				<stop  offset="0" style="stop-color:#FFFFFF"/>
				<stop  offset="0" style="stop-color:#0086AA"/>
				<stop  offset="1" style="stop-color:#12FFEB"/>
			</linearGradient>
			<path class="st2" d="M113.5,38.6h7.3v6.6c0.1,0,0.3,0.1,0.4,0.1c1,0.4,2.1,0.8,3.3,1.1c1.2,0.3,2.5,0.4,3.9,0.4
				c2.5,0,4.4-0.5,5.8-1.5c1.4-1,2.1-2.3,2.1-4c0-1.5-0.6-2.7-1.7-3.6c-1.1-0.9-2.5-1.7-4.2-2.5c-1.7-0.7-3.5-1.4-5.4-2.1
				c-2-0.7-3.8-1.6-5.4-2.7c-1.7-1.1-3-2.4-4.2-4.1c-1.1-1.6-1.7-3.8-1.7-6.4c0-2,0.4-3.8,1.2-5.5c0.8-1.7,1.9-3.1,3.2-4.3
				c1.4-1.2,3.1-2.1,5-2.8c1.9-0.7,4.1-1,6.5-1c2.7,0,5.3,0.2,8,0.7c2.6,0.5,4.7,1.1,6.2,2v13.5h-7.3v-7.4c-0.1,0-0.3,0-0.4-0.1
				c-1-0.3-2-0.5-3.1-0.6c-1.1-0.2-2.2-0.2-3.3-0.2c-2.1,0-3.8,0.4-5,1.3c-1.2,0.8-1.8,2-1.8,3.4c0,1.5,0.6,2.7,1.7,3.6
				c1.1,0.9,2.5,1.8,4.2,2.5c1.7,0.8,3.5,1.5,5.4,2.3c2,0.8,3.8,1.7,5.4,2.8c1.7,1.1,3.1,2.4,4.2,4.1c1.1,1.6,1.7,3.7,1.7,6.2
				c0,2.4-0.4,4.5-1.3,6.3c-0.9,1.8-2.1,3.3-3.7,4.5c-1.6,1.2-3.5,2.1-5.6,2.7c-2.2,0.6-4.5,0.9-7,0.9c-1.7,0-3.2-0.1-4.7-0.4
				c-1.4-0.3-2.8-0.6-4-1c-1.2-0.4-2.3-0.8-3.2-1.3c-0.9-0.4-1.7-0.8-2.3-1.1V38.6z"/>
			<linearGradient id="SVGID_4_" gradientUnits="userSpaceOnUse" x1="162.9239" y1="30.5469" x2="196.0772" y2="30.5469">
				<stop  offset="0" style="stop-color:#FFFFFF"/>
				<stop  offset="0" style="stop-color:#0086AA"/>
				<stop  offset="1" style="stop-color:#12FFEB"/>
			</linearGradient>
			<path class="st3" d="M187,34.3h-15v19.4h-9.1V7.3h9.1v18.9h15V7.3h9.1v46.4H187V34.3z"/>
			<linearGradient id="SVGID_5_" gradientUnits="userSpaceOnUse" x1="210.399" y1="30.5469" x2="249.3877" y2="30.5469">
				<stop  offset="0" style="stop-color:#FFFFFF"/>
				<stop  offset="0" style="stop-color:#0086AA"/>
				<stop  offset="1" style="stop-color:#12FFEB"/>
			</linearGradient>
			<path class="st4" d="M236.5,43.5h-13.9l-3.2,10.3h-9.1l15-46.4h9.1l14.9,46.4h-9.5L236.5,43.5z M224.8,36.2h9.9L230,20.7h-0.6
				L224.8,36.2z"/>
			<linearGradient id="SVGID_6_" gradientUnits="userSpaceOnUse" x1="264.1065" y1="30.5469" x2="296.4649" y2="30.5469">
				<stop  offset="0" style="stop-color:#FFFFFF"/>
				<stop  offset="0" style="stop-color:#0086AA"/>
				<stop  offset="1" style="stop-color:#12FFEB"/>
			</linearGradient>
			<path class="st5" d="M272.7,26.3h-0.3l0.4,5.5v21.9h-8.6V7.3h8l16,28.4h0.3l-0.6-5.6V7.3h8.6v46.4h-8L272.7,26.3z"/>
			<linearGradient id="SVGID_7_" gradientUnits="userSpaceOnUse" x1="312.5098" y1="30.5469" x2="348.8467" y2="30.5469">
				<stop  offset="0" style="stop-color:#FFFFFF"/>
				<stop  offset="0" style="stop-color:#0086AA"/>
				<stop  offset="1" style="stop-color:#12FFEB"/>
			</linearGradient>
			<path class="st6" d="M318.6,46.5h7.6V14.6h-6.4v8h-7.3V7.3h36.3v15.3h-7.3v-8h-6.3v31.8h7.5v7.3h-24.1V46.5z"/>
			<linearGradient id="SVGID_8_" gradientUnits="userSpaceOnUse" x1="11.6133" y1="84.1831" x2="48.0157" y2="84.1831">
				<stop  offset="0" style="stop-color:#FFFFFF"/>
				<stop  offset="0" style="stop-color:#0086AA"/>
				<stop  offset="1" style="stop-color:#12FFEB"/>
			</linearGradient>
			<path class="st7" d="M25.4,88h-4.7v19.4h-9.1V61h9.1v19h4.7L36,61h10.3L33.3,83.4l14.7,24H36.8L25.4,88z"/>
			<linearGradient id="SVGID_9_" gradientUnits="userSpaceOnUse" x1="62.1387" y1="84.5811" x2="95.292" y2="84.5811">
				<stop  offset="0" style="stop-color:#FFFFFF"/>
				<stop  offset="0" style="stop-color:#0086AA"/>
				<stop  offset="1" style="stop-color:#12FFEB"/>
			</linearGradient>
			<path class="st8" d="M86.7,61h8.6v29.7c0,3-0.4,5.6-1.2,7.8c-0.8,2.2-1.9,4-3.3,5.4c-1.4,1.4-3.1,2.5-5.1,3.2
				c-2,0.7-4.2,1.1-6.6,1.1c-5.7,0-10-1.4-12.8-4.2c-2.8-2.8-4.1-6.9-4.1-12.2V61h9.1v29c0,3.5,0.6,6.1,1.9,7.7
				c1.3,1.6,3.3,2.4,6,2.4c2.7,0,4.6-0.9,5.7-2.6c1.2-1.7,1.8-4.2,1.8-7.5V61z"/>
			<linearGradient id="SVGID_10_" gradientUnits="userSpaceOnUse" x1="111.8682" y1="84.1831" x2="146.3477" y2="84.1831">
				<stop  offset="0" style="stop-color:#FFFFFF"/>
				<stop  offset="0" style="stop-color:#0086AA"/>
				<stop  offset="1" style="stop-color:#12FFEB"/>
			</linearGradient>
			<path class="st9" d="M137.3,82.7l0.3-7.2h-0.4l-7.4,12.1h-1.6l-7.8-12.1h-0.3l0.4,6.5v25.5h-8.6V61h9.2l8,12.9h0.3l7.9-12.9h9.2
				v46.4h-9.1V82.7z"/>
			<linearGradient id="SVGID_11_" gradientUnits="userSpaceOnUse" x1="160.0064" y1="84.1831" x2="198.9947" y2="84.1831">
				<stop  offset="0" style="stop-color:#FFFFFF"/>
				<stop  offset="0" style="stop-color:#0086AA"/>
				<stop  offset="1" style="stop-color:#12FFEB"/>
			</linearGradient>
			<path class="st10" d="M186.1,97.1h-13.9l-3.2,10.3H160L175,61h9.1l14.9,46.4h-9.5L186.1,97.1z M174.4,89.8h9.9l-4.7-15.5H179
				L174.4,89.8z"/>
			<linearGradient id="SVGID_12_" gradientUnits="userSpaceOnUse" x1="214.1119" y1="83.8516" x2="248.459" y2="83.8516">
				<stop  offset="0" style="stop-color:#FFFFFF"/>
				<stop  offset="0" style="stop-color:#0086AA"/>
				<stop  offset="1" style="stop-color:#12FFEB"/>
			</linearGradient>
			<path class="st11" d="M214.1,61.4c1-0.2,2.1-0.3,3.3-0.5c1.2-0.2,2.3-0.3,3.5-0.4c1.2-0.1,2.3-0.2,3.4-0.2c1.1,0,2.1-0.1,3-0.1
				c2.2,0,4.3,0.2,6.4,0.6c2.1,0.4,4,1.1,5.6,2.2c1.7,1,3,2.4,4,4.1c1,1.7,1.5,3.9,1.5,6.4c0,1.9-0.2,3.5-0.6,4.9
				c-0.4,1.4-0.9,2.6-1.6,3.7c-0.7,1.1-1.5,2-2.4,2.8c-1,0.8-2,1.5-3.1,2.1l11.2,20.3H238l-9.3-18.2h-5.4v18.2h-9.1V61.4z M228,68.4
				c-0.9,0-1.8,0-2.8,0.1c-0.9,0-1.6,0.1-2.1,0.3v13.5h3.6c2.5,0,4.6-0.6,6.2-1.7c1.6-1.1,2.4-3,2.4-5.7c0-2-0.6-3.5-1.9-4.7
				C232.2,69,230.4,68.4,228,68.4z"/>
		</g>
	</g>
</g>
</svg>
